<svg width="265" height="84" viewBox="0 0 265 84" fill="none" xmlns="http://www.w3.org/2000/svg">
<rect opacity="0.6" width="265" height="84" rx="32" fill="#287A87"/>
<path d="M60.176 51V47.688H64.376C65.4 47.688 66.296 47.488 67.064 47.088C67.832 46.672 68.424 46.072 68.84 45.288C69.256 44.504 69.464 43.576 69.464 42.504C69.464 41.432 69.248 40.512 68.816 39.744C68.4 38.976 67.808 38.384 67.04 37.968C66.288 37.552 65.4 37.344 64.376 37.344H60.056V34.056H64.424C65.704 34.056 66.88 34.264 67.952 34.68C69.04 35.08 69.984 35.664 70.784 36.432C71.6 37.184 72.224 38.08 72.656 39.12C73.104 40.144 73.328 41.28 73.328 42.528C73.328 43.76 73.104 44.896 72.656 45.936C72.224 46.976 71.608 47.872 70.808 48.624C70.008 49.376 69.064 49.96 67.976 50.376C66.904 50.792 65.736 51 64.472 51H60.176ZM57.632 51V34.056H61.4V51H57.632ZM81.0058 51.264C79.8058 51.264 78.7178 51 77.7418 50.472C76.7818 49.928 76.0218 49.192 75.4618 48.264C74.9018 47.336 74.6218 46.296 74.6218 45.144C74.6218 43.992 74.9018 42.96 75.4618 42.048C76.0218 41.136 76.7818 40.416 77.7418 39.888C78.7018 39.344 79.7898 39.072 81.0058 39.072C82.2218 39.072 83.3098 39.336 84.2698 39.864C85.2298 40.392 85.9898 41.12 86.5498 42.048C87.1098 42.96 87.3898 43.992 87.3898 45.144C87.3898 46.296 87.1098 47.336 86.5498 48.264C85.9898 49.192 85.2298 49.928 84.2698 50.472C83.3098 51 82.2218 51.264 81.0058 51.264ZM81.0058 47.928C81.5338 47.928 81.9978 47.816 82.3978 47.592C82.7978 47.352 83.1018 47.024 83.3098 46.608C83.5338 46.176 83.6458 45.688 83.6458 45.144C83.6458 44.6 83.5338 44.128 83.3098 43.728C83.0858 43.312 82.7738 42.992 82.3738 42.768C81.9898 42.528 81.5338 42.408 81.0058 42.408C80.4938 42.408 80.0378 42.528 79.6378 42.768C79.2378 42.992 78.9258 43.312 78.7018 43.728C78.4778 44.144 78.3658 44.624 78.3658 45.168C78.3658 45.696 78.4778 46.176 78.7018 46.608C78.9258 47.024 79.2378 47.352 79.6378 47.592C80.0378 47.816 80.4938 47.928 81.0058 47.928ZM91.8395 51L87.8075 39.336H91.4075L93.9035 47.808L92.8475 47.832L95.6075 39.336H98.5835L101.368 47.832L100.288 47.808L102.808 39.336H106.408L102.376 51H99.3755L96.6635 42.936H97.5755L94.8155 51H91.8395ZM115.531 51V44.352C115.531 43.744 115.339 43.256 114.955 42.888C114.587 42.504 114.115 42.312 113.539 42.312C113.139 42.312 112.787 42.4 112.483 42.576C112.179 42.736 111.939 42.976 111.763 43.296C111.587 43.6 111.499 43.952 111.499 44.352L110.083 43.656C110.083 42.744 110.283 41.944 110.683 41.256C111.083 40.568 111.635 40.04 112.339 39.672C113.059 39.288 113.867 39.096 114.763 39.096C115.627 39.096 116.387 39.304 117.043 39.72C117.715 40.12 118.243 40.656 118.627 41.328C119.011 42 119.203 42.736 119.203 43.536V51H115.531ZM107.827 51V39.336H111.499V51H107.827ZM121.562 51V33.576H125.234V51H121.562ZM133.435 51.264C132.235 51.264 131.147 51 130.171 50.472C129.211 49.928 128.451 49.192 127.891 48.264C127.331 47.336 127.051 46.296 127.051 45.144C127.051 43.992 127.331 42.96 127.891 42.048C128.451 41.136 129.211 40.416 130.171 39.888C131.131 39.344 132.219 39.072 133.435 39.072C134.651 39.072 135.739 39.336 136.699 39.864C137.659 40.392 138.419 41.12 138.979 42.048C139.539 42.96 139.819 43.992 139.819 45.144C139.819 46.296 139.539 47.336 138.979 48.264C138.419 49.192 137.659 49.928 136.699 50.472C135.739 51 134.651 51.264 133.435 51.264ZM133.435 47.928C133.963 47.928 134.427 47.816 134.827 47.592C135.227 47.352 135.531 47.024 135.739 46.608C135.963 46.176 136.075 45.688 136.075 45.144C136.075 44.6 135.963 44.128 135.739 43.728C135.515 43.312 135.203 42.992 134.803 42.768C134.419 42.528 133.963 42.408 133.435 42.408C132.923 42.408 132.467 42.528 132.067 42.768C131.667 42.992 131.355 43.312 131.131 43.728C130.907 44.144 130.795 44.624 130.795 45.168C130.795 45.696 130.907 46.176 131.131 46.608C131.355 47.024 131.667 47.352 132.067 47.592C132.467 47.816 132.923 47.928 133.435 47.928ZM146.52 51.24C145.448 51.24 144.488 50.976 143.64 50.448C142.808 49.92 142.144 49.2 141.648 48.288C141.168 47.376 140.928 46.336 140.928 45.168C140.928 44 141.168 42.96 141.648 42.048C142.144 41.136 142.808 40.416 143.64 39.888C144.488 39.36 145.448 39.096 146.52 39.096C147.304 39.096 148.008 39.248 148.632 39.552C149.272 39.856 149.792 40.28 150.192 40.824C150.592 41.352 150.816 41.96 150.864 42.648V47.688C150.816 48.376 150.592 48.992 150.192 49.536C149.808 50.064 149.296 50.48 148.656 50.784C148.016 51.088 147.304 51.24 146.52 51.24ZM147.264 47.928C148.048 47.928 148.68 47.672 149.16 47.16C149.64 46.632 149.88 45.968 149.88 45.168C149.88 44.624 149.768 44.144 149.544 43.728C149.336 43.312 149.032 42.992 148.632 42.768C148.248 42.528 147.8 42.408 147.288 42.408C146.776 42.408 146.32 42.528 145.92 42.768C145.536 42.992 145.224 43.312 144.984 43.728C144.76 44.144 144.648 44.624 144.648 45.168C144.648 45.696 144.76 46.168 144.984 46.584C145.208 47 145.52 47.328 145.92 47.568C146.32 47.808 146.768 47.928 147.264 47.928ZM149.736 51V47.856L150.288 45.024L149.736 42.192V39.336H153.336V51H149.736ZM160.889 51.24C159.785 51.24 158.801 50.976 157.937 50.448C157.089 49.92 156.417 49.2 155.921 48.288C155.441 47.376 155.201 46.336 155.201 45.168C155.201 44 155.441 42.96 155.921 42.048C156.417 41.136 157.089 40.416 157.937 39.888C158.801 39.36 159.785 39.096 160.889 39.096C161.689 39.096 162.409 39.248 163.049 39.552C163.705 39.856 164.241 40.28 164.657 40.824C165.089 41.352 165.329 41.96 165.377 42.648V47.568C165.329 48.256 165.097 48.88 164.681 49.44C164.265 49.984 163.729 50.424 163.073 50.76C162.417 51.08 161.689 51.24 160.889 51.24ZM161.537 47.928C162.065 47.928 162.521 47.816 162.905 47.592C163.289 47.352 163.593 47.024 163.817 46.608C164.041 46.192 164.153 45.712 164.153 45.168C164.153 44.624 164.041 44.152 163.817 43.752C163.609 43.336 163.305 43.008 162.905 42.768C162.521 42.528 162.073 42.408 161.561 42.408C161.049 42.408 160.593 42.528 160.193 42.768C159.809 43.008 159.497 43.336 159.257 43.752C159.033 44.168 158.921 44.64 158.921 45.168C158.921 45.696 159.033 46.168 159.257 46.584C159.481 47 159.793 47.328 160.193 47.568C160.593 47.808 161.041 47.928 161.537 47.928ZM167.609 51H164.009V47.856L164.561 45.024L163.937 42.192V33.576H167.609V51ZM183.141 51.264C181.877 51.264 180.701 51.048 179.613 50.616C178.541 50.168 177.597 49.544 176.781 48.744C175.981 47.944 175.357 47.016 174.909 45.96C174.461 44.888 174.237 43.736 174.237 42.504C174.237 41.272 174.461 40.128 174.909 39.072C175.357 38 175.981 37.072 176.781 36.288C177.581 35.504 178.517 34.896 179.589 34.464C180.677 34.016 181.853 33.792 183.117 33.792C184.461 33.792 185.653 34.008 186.693 34.44C187.749 34.872 188.669 35.464 189.453 36.216L186.933 38.76C186.485 38.28 185.941 37.904 185.301 37.632C184.677 37.36 183.949 37.224 183.117 37.224C182.381 37.224 181.701 37.352 181.077 37.608C180.469 37.848 179.941 38.2 179.493 38.664C179.061 39.128 178.717 39.688 178.461 40.344C178.221 41 178.101 41.72 178.101 42.504C178.101 43.304 178.221 44.032 178.461 44.688C178.717 45.344 179.061 45.904 179.493 46.368C179.941 46.832 180.469 47.192 181.077 47.448C181.701 47.704 182.381 47.832 183.117 47.832C183.981 47.832 184.733 47.696 185.373 47.424C186.013 47.152 186.565 46.776 187.029 46.296L189.573 48.84C188.757 49.592 187.821 50.184 186.765 50.616C185.725 51.048 184.517 51.264 183.141 51.264ZM196.928 51L190.4 34.056H194.432L199.4 47.76H197.744L202.784 34.056H206.768L200.168 51H196.928Z" fill="#DDD9DA"/>
</svg>
